<svg xmlns="http://www.w3.org/2000/svg" version="1.1" xmlns:xlink="http://www.w3.org/1999/xlink" xmlns:svgjs="http://svgjs.dev/svgjs" width="1500" height="746" viewBox="0 0 1500 746"><g transform="matrix(1,0,0,1,-0.9090909090909918,0.18935728112654715)"><svg viewBox="0 0 396 197" data-background-color="#ffffff" preserveAspectRatio="xMidYMid meet" height="746" width="1500" xmlns="http://www.w3.org/2000/svg" xmlns:xlink="http://www.w3.org/1999/xlink"><g id="tight-bounds" transform="matrix(1,0,0,1,0.2400000000000091,-0.05000453670500349)"><svg viewBox="0 0 395.52 197.10000907341" height="197.10000907341" width="395.52"><g><svg viewBox="0 0 397.4975999999999 198.08550911877703" height="197.10000907341" width="395.52"><g><rect width="397.4975999999999" height="6.067097520025623" x="0" y="108.85908787130512" fill="#ffffff" opacity="1" stroke-width="0" stroke="transparent" fill-opacity="1" class="rect-yte-0" data-fill-palette-color="secondary" rx="1%" id="yte-0" data-palette-color="#ffffff"></rect></g><g transform="matrix(1,0,0,1,0.9887999999999693,130.80863963223553)"><svg viewBox="0 0 395.52 67.2768694865415" height="67.2768694865415" width="395.52"><g id="textblocktransform"><svg viewBox="0 0 395.52 67.2768694865415" height="67.2768694865415" width="395.52" id="textblock"><g><svg viewBox="0 0 395.52 67.2768694865415" height="67.2768694865415" width="395.52"><g transform="matrix(1,0,0,1,0,0)"><svg width="395.52" viewBox="1.5 -37 221.03 37.6" height="67.2768694865415" data-palette-color="#ffffff"><path d="M13.2 0.6L13.2 0.6Q9.55 0.6 6.55-0.38 3.55-1.35 1.5-2.95L1.5-2.95 3.9-6.95Q5.7-5.45 7.95-4.5 10.2-3.55 13.2-3.55L13.2-3.55Q16.8-3.55 18.9-5.05 21-6.55 21-9.1L21-9.1Q21-10.55 20.4-11.68 19.8-12.8 18.07-13.88 16.35-14.95 13-16.2L13-16.2Q9.4-17.6 7.25-19.03 5.1-20.45 4.17-22.28 3.25-24.1 3.25-26.6L3.25-26.6Q3.25-29.1 4.63-31.13 6-33.15 8.68-34.38 11.35-35.6 15.15-35.6L15.15-35.6Q18.25-35.6 20.73-34.98 23.2-34.35 25.55-33.2L25.55-33.2 23.8-29.15Q22.1-30.15 19.83-30.83 17.55-31.5 15.05-31.5L15.05-31.5Q11.75-31.5 9.85-30.2 7.95-28.9 7.95-26.85L7.95-26.85Q7.95-25.55 8.5-24.55 9.05-23.55 10.68-22.6 12.3-21.65 15.55-20.45L15.55-20.45Q19.45-19 21.73-17.4 24-15.8 24.95-13.93 25.9-12.05 25.9-9.65L25.9-9.65Q25.9-6.4 24.28-4.1 22.65-1.8 19.78-0.6 16.9 0.6 13.2 0.6ZM36.9 0L32.4 0 32.4-37 36.9-37 36.9-21.85Q38.3-23.9 40.45-25.25 42.6-26.6 45.5-26.6L45.5-26.6Q49.9-26.6 52.07-23.95 54.25-21.3 54.25-16.95L54.25-16.95 54.25 0 49.75 0 49.75-16.45Q49.75-19.25 48.45-20.95 47.15-22.65 44.8-22.65L44.8-22.65Q42.5-22.65 40.42-21.03 38.35-19.4 36.9-17.2L36.9-17.2 36.9 0ZM71.95 0.6L71.95 0.6Q68.7 0.6 66.05-1.05 63.4-2.7 61.82-5.73 60.25-8.75 60.25-12.85L60.25-12.85Q60.25-16.75 61.82-19.85 63.4-22.95 66.17-24.78 68.95-26.6 72.55-26.6L72.55-26.6Q74.8-26.6 76.62-25.83 78.45-25.05 79.8-23.9L79.8-23.9 79.8-26 83.9-26 83.9-6.3Q83.9-4.4 84.82-3.83 85.75-3.25 86.84-3.25L86.84-3.25 85.9 0.25Q81.09 0.25 80.09-3.65L80.09-3.65Q78.95-2.05 76.97-0.73 75 0.6 71.95 0.6ZM72.95-3.4L72.95-3.4Q74.84-3.4 76.55-4.33 78.25-5.25 79.4-6.65L79.4-6.65 79.4-20.6Q78.05-21.55 76.42-22.13 74.8-22.7 73-22.7L73-22.7Q70.59-22.7 68.77-21.48 66.95-20.25 65.9-18.07 64.84-15.9 64.84-13L64.84-13Q64.84-10.2 65.9-8.03 66.95-5.85 68.8-4.63 70.65-3.4 72.95-3.4ZM97.34 0L92.84 0 92.84-26 97.19-26 97.19-20.35Q97.84-22 98.94-23.43 100.04-24.85 101.69-25.73 103.34-26.6 105.54-26.6L105.54-26.6Q106.29-26.6 107.04-26.53 107.79-26.45 108.29-26.3L108.29-26.3 106.94-21.65Q105.99-22.05 104.69-22.05L104.69-22.05Q102.84-22.05 101.17-21 99.49-19.95 98.42-17.75 97.34-15.55 97.34-12.15L97.34-12.15 97.34 0ZM121.69 0.6L121.69 0.6Q116.09 0.6 112.82-2.98 109.54-6.55 109.54-13L109.54-13Q109.54-16.9 111.02-19.98 112.49-23.05 115.14-24.83 117.79-26.6 121.29-26.6L121.29-26.6Q125.04-26.6 127.52-24.98 129.99-23.35 131.24-20.6 132.49-17.85 132.49-14.55L132.49-14.55Q132.49-12.8 132.34-11.15L132.34-11.15 114.14-11.15Q114.59-7.5 116.69-5.45 118.79-3.4 122.24-3.4L122.24-3.4Q124.49-3.4 126.29-3.88 128.09-4.35 129.74-5.1L129.74-5.1 130.79-1.25Q128.99-0.45 126.74 0.08 124.49 0.6 121.69 0.6ZM114.09-14.8L114.09-14.8 128.34-14.8Q128.34-18.6 126.44-20.65 124.54-22.7 121.19-22.7L121.19-22.7Q118.29-22.7 116.39-20.68 114.49-18.65 114.09-14.8ZM149.09 0.4L149.09 0.4Q146.04 0.4 143.31 0.25 140.59 0.1 138.99-0.1L138.99-0.1 138.99-34.9Q140.74-35.1 143.34-35.25 145.94-35.4 149.29-35.4L149.29-35.4Q155.69-35.4 159.14-32.98 162.59-30.55 162.59-26.4L162.59-26.4Q162.59-23.65 161.11-21.73 159.64-19.8 156.84-18.55L156.84-18.55Q160.24-17.35 161.99-15.23 163.74-13.1 163.74-10L163.74-10Q163.74-5.25 159.99-2.43 156.24 0.4 149.09 0.4ZM143.74-31.3L143.74-19.9 149.24-19.9Q153.19-19.9 155.51-21.55 157.84-23.2 157.84-25.8L157.84-25.8Q157.84-28.6 155.54-30.08 153.24-31.55 149.24-31.55L149.24-31.55Q147.59-31.55 146.24-31.48 144.89-31.4 143.74-31.3L143.74-31.3ZM149.44-3.55L149.44-3.55Q153.89-3.55 156.39-5.15 158.89-6.75 158.89-9.8L158.89-9.8Q158.89-12.8 156.44-14.5 153.99-16.2 149.44-16.2L149.44-16.2 143.74-16.2 143.74-3.85Q146.39-3.55 149.44-3.55ZM174.49 0L169.99 0 169.99-26 174.49-26 174.49 0ZM172.24-30.45L172.24-30.45Q170.94-30.45 170.01-31.4 169.09-32.35 169.09-33.6L169.09-33.6Q169.09-35.05 169.94-35.9 170.79-36.75 172.24-36.75L172.24-36.75Q173.54-36.75 174.46-35.83 175.39-34.9 175.39-33.6L175.39-33.6Q175.39-32.2 174.54-31.33 173.69-30.45 172.24-30.45ZM191.58 0.6L191.58 0.6Q187.83 0.6 185.66-1.88 183.48-4.35 183.48-8.95L183.48-8.95 183.48-21.15 178.98-21.15 178.98-25.05 183.58-25.05 184.53-33.25 187.98-33.25 187.98-25.05 195.18-25.05 195.18-21.15 187.98-21.15 187.98-8.6Q187.98-5.7 189.21-4.55 190.43-3.4 192.13-3.4L192.13-3.4Q193.38-3.4 194.51-3.8 195.63-4.2 196.58-4.75L196.58-4.75 197.83-1.15Q196.83-0.55 195.13 0.03 193.43 0.6 191.58 0.6ZM211.73 0.6L211.73 0.6Q206.13 0.6 202.86-2.98 199.58-6.55 199.58-13L199.58-13Q199.58-16.9 201.06-19.98 202.53-23.05 205.18-24.83 207.83-26.6 211.33-26.6L211.33-26.6Q215.08-26.6 217.56-24.98 220.03-23.35 221.28-20.6 222.53-17.85 222.53-14.55L222.53-14.55Q222.53-12.8 222.38-11.15L222.38-11.15 204.18-11.15Q204.63-7.5 206.73-5.45 208.83-3.4 212.28-3.4L212.28-3.4Q214.53-3.4 216.33-3.88 218.13-4.35 219.78-5.1L219.78-5.1 220.83-1.25Q219.03-0.45 216.78 0.08 214.53 0.6 211.73 0.6ZM204.13-14.8L204.13-14.8 218.38-14.8Q218.38-18.6 216.48-20.65 214.58-22.7 211.23-22.7L211.23-22.7Q208.33-22.7 206.43-20.68 204.53-18.65 204.13-14.8Z" opacity="1" transform="matrix(1,0,0,1,0,0)" fill="#ffffff" class="wordmark-text-0" data-fill-palette-color="primary" id="text-0"></path></svg></g></svg></g></svg></g></svg></g><g transform="matrix(1,0,0,1,159.3510557061819,0)"><svg viewBox="0 0 78.7954885876361 92.97663363040036" height="92.97663363040036" width="78.7954885876361"><g><svg xmlns="http://www.w3.org/2000/svg" xmlns:xlink="http://www.w3.org/1999/xlink" version="1.1" x="8" y="0" viewBox="15.99 0 67.539 100" enable-background="new 0 0 100 100" xml:space="preserve" height="92.97663363040036" width="62.7954885876361" class="icon-icon-0" data-fill-palette-color="accent" id="icon-0"><path d="M82.92 4.82L83.529 0 64 1.83 57.689 20.36H15.99L26.07 100H60.221L70.34 20.36 62.721 20.34 67.641 6.22zM26.61 70.38L20.12 25.11 56.18 25.16 43.3 65.98C34.96 65.63 26.61 70.38 26.61 70.38M65.54 25.18S61.08 63.019 59.561 65.05C58.071 67.061 57.38 69.63 48.311 66.88L61.231 25.17z" fill="#d2d6dc" data-fill-palette-color="accent"></path></svg></g></svg></g><g><rect width="82.81793570618194" height="6.067097520025623" y="85.90953611037473" x="238.146544293818" fill="#61777f" data-fill-palette-color="secondary"></rect><rect width="82.81793570618194" height="6.067097520025623" y="85.90953611037473" x="76.53311999999997" fill="#61777f" data-fill-palette-color="secondary"></rect></g></svg></g><defs></defs></svg><rect width="395.52" height="197.10000907341" fill="none" stroke="none" visibility="hidden"></rect></g></svg></g></svg>